<svg xmlns="http://www.w3.org/2000/svg" width="129.459" height="81.616" viewBox="0 0 129.459 81.616">
  <g id="google-plus" transform="translate(52 18.5)">
    <path id="Path_2" data-name="Path 2" d="M44.146,9H30.772V22.313H17.459V35.687H30.772V49H44.146V35.687H57.459V22.313H44.146Z" transform="translate(20 -2)" fill="#fff"/>
    <path id="Path_3" data-name="Path 3" d="M40.808,86.116C64.357,86.116,80,69.586,80,46.255a34.869,34.869,0,0,0-.664-6.79H40.813V53.491H63.976c-.947,5.958-7.014,17.591-23.163,17.591A25.547,25.547,0,0,1,15.54,45.308c0-14.25,11.356-25.78,25.274-25.78a22.926,22.926,0,0,1,16.258,6.29L68.149,15.186A39.025,39.025,0,0,0,40.808,4.5a40.808,40.808,0,0,0,0,81.616Z" transform="translate(-52 -23)" fill="#fff"/>
  </g>
</svg>
