<svg xmlns="http://www.w3.org/2000/svg" width="80" height="80" viewBox="0 0 80 80">
  <path id="twitter" d="M40,0A40,40,0,1,0,80,40,40,40,0,0,0,40,0ZM58.264,31.188q.027.591.026,1.187c0,12.132-9.235,26.122-26.123,26.123h0a25.988,25.988,0,0,1-14.073-4.124,18.673,18.673,0,0,0,2.19.127,18.422,18.422,0,0,0,11.4-3.93,9.191,9.191,0,0,1-8.577-6.377,9.151,9.151,0,0,0,4.147-.157,9.183,9.183,0,0,1-7.366-9c0-.042,0-.079,0-.117a9.118,9.118,0,0,0,4.158,1.148,9.189,9.189,0,0,1-2.842-12.257A26.066,26.066,0,0,0,40.133,33.4a9.186,9.186,0,0,1,15.645-8.373,18.415,18.415,0,0,0,5.83-2.228,9.217,9.217,0,0,1-4.037,5.078,18.311,18.311,0,0,0,5.272-1.446,18.658,18.658,0,0,1-4.579,4.755Zm0,0" fill="#fff"/>
</svg>
